<?xml version="1.0" encoding="UTF-8" standalone="no"?>
<!-- Created with Inkscape (http://www.inkscape.org/) -->
<svg id="svg10687" xmlns:rdf="http://www.w3.org/1999/02/22-rdf-syntax-ns#" xmlns="http://www.w3.org/2000/svg" height="500" width="500" version="1.1" xmlns:cc="http://creativecommons.org/ns#" xmlns:dc="http://purl.org/dc/elements/1.1/">
 <metadata id="metadata10692">
  <rdf:RDF>
   <cc:Work rdf:about="">
    <dc:format>image/svg+xml</dc:format>
    <dc:type rdf:resource="http://purl.org/dc/dcmitype/StillImage"/>
    <dc:title/>
   </cc:Work>
  </rdf:RDF>
 </metadata>
 <g id="layer1" transform="translate(-134.26181,-139.72826)">
  <path id="path1618" fill-rule="nonzero" fill="#ffffff" d="M384.26,139.73a250,250,0,0,0,-75.01,11.81v339.01c24.102-26.5,55.704-46.403,92.09-56.153,20.919-5.6051,42.14-7.5135,62.891-6.0546,55.446,3.901,107.43,31.926,141.1,77.754a250,250,0,0,0,28.926,-116.38,250,250,0,0,0,-250,-250zm-124.99,33.848a250,250,0,0,0,-125.01,216.15,250,250,0,0,0,125.01,216.25zm189.98,304.29c-11.617,0.15135-23.365,1.7348-35,4.8535-62.051,16.627-105,72.587-105,136.83a25.002,25.003,0,0,1,0,0.26239v8.3496a250,250,0,0,0,75.01,11.573,250,250,0,0,0,190.89,-88.604,25.002,25.003,0,0,1,-1.5232,-2.4121c-26.1-45.21-74.04-71.5-124.38-70.86z"/>
 </g>
</svg>
